<svg xmlns="http://www.w3.org/2000/svg" xmlns:xlink="http://www.w3.org/1999/xlink" width="63" height="42" viewBox="0 0 63 42">
  <defs>
    <clipPath id="clip-american-express">
      <rect width="63" height="42"/>
    </clipPath>
  </defs>
  <g id="american-express" clip-path="url(#clip-american-express)">
    <g id="Visa">
      <rect id="Rectangle_1" data-name="Rectangle 1" width="62.687" height="42" rx="4" fill="#fafafa"/>
    </g>
    <g id="payment" transform="translate(3 3)">
      <path id="Path_55" data-name="Path 55" d="M52.614,0H3.758A3.762,3.762,0,0,0,0,3.762V31.941A3.763,3.763,0,0,0,3.759,35.7H52.615a3.762,3.762,0,0,0,3.759-3.762V3.762A3.764,3.764,0,0,0,52.614,0Z" fill="#227fbb" fill-rule="evenodd"/>
      <path id="Path_56" data-name="Path 56" d="M5.085,21.568,4,18.923,2.921,21.568H5.085Zm23.91-1.053a1.469,1.469,0,0,1-.785.137H26.284V19.177h1.952a1.62,1.62,0,0,1,.752.12.606.606,0,0,1,.334.586.678.678,0,0,1-.327.631Zm13.742,1.053-1.1-2.645-1.091,2.645ZM17.12,24.43H15.5l-.006-5.2-2.3,5.2H11.8l-2.305-5.2v5.2H6.267l-.609-1.48h-3.3l-.615,1.48H.019L2.858,17.8H5.214l2.7,6.282V17.8H10.5l2.075,4.5,1.906-4.5h2.64V24.43Zm6.479,0H18.3V17.8h5.3v1.381H19.888v1.2H23.51v1.36H19.888v1.325H23.6Zm7.469-4.848a1.868,1.868,0,0,1-1.118,1.769,1.835,1.835,0,0,1,.785.559A1.906,1.906,0,0,1,31,23.127v1.3H29.4l-.006-.836a1.992,1.992,0,0,0-.25-1.293,1.55,1.55,0,0,0-1.156-.284h-1.7V24.43H24.7V17.8h3.647a3.733,3.733,0,0,1,1.92.318,1.548,1.548,0,0,1,.8,1.469h0Zm2.538,4.848H31.988V17.8h1.618Zm18.77,0H50.13l-3.006-4.98v4.98H43.895l-.617-1.48H39.983l-.6,1.48H37.529a3.333,3.333,0,0,1-2.3-.734,3.338,3.338,0,0,1-.847-2.533,3.53,3.53,0,0,1,.855-2.594,3.216,3.216,0,0,1,2.408-.774h1.535v1.422h-1.5a1.526,1.526,0,0,0-1.22.393,2.191,2.191,0,0,0-.456,1.5,2.3,2.3,0,0,0,.436,1.558,1.529,1.529,0,0,0,1.1.342h.712L40.49,17.8h2.376l2.685,6.276V17.8h2.415l2.787,4.621V17.8h1.624V24.43ZM0,25.735H2.71L3.32,24.26H4.688L5.3,25.735h5.331V24.607l.476,1.132h2.767l.476-1.149v1.144H27.6l-.006-2.419h.256c.179.006.232.023.232.319v2.1H34.93V25.17a5.423,5.423,0,0,0,2.543.564h2.883l.617-1.474H42.34l.6,1.474H48.5v-1.4l.841,1.4H53.79V16.48H49.385v1.093l-.617-1.093h-4.52v1.093l-.567-1.093H37.575a5.484,5.484,0,0,0-2.646.54v-.54H30.715v.54a2.613,2.613,0,0,0-1.791-.54H13.53L12.5,18.87l-1.061-2.39H6.589v1.093L6.055,16.48H1.92L0,20.88v4.854ZM56.4,30.62h-2.89a1.1,1.1,0,0,0-.642.12.517.517,0,0,0-.232.478.5.5,0,0,0,.347.494,1.807,1.807,0,0,0,.611.075l.86.023a2.509,2.509,0,0,1,1.8.534.863.863,0,0,1,.147.164V30.62ZM56.4,35a2.47,2.47,0,0,1-2.152.849H51.188V34.421h3.05a.9.9,0,0,0,.642-.164.582.582,0,0,0,.188-.432.546.546,0,0,0-.194-.439.807.807,0,0,0-.559-.147c-1.489-.051-3.346.046-3.346-2.054,0-.963.611-1.976,2.275-1.976H56.4v-1.32H53.468a3.3,3.3,0,0,0-1.985.542v-.542H47.142a3.005,3.005,0,0,0-1.894.542v-.542H37.5v.542a4.127,4.127,0,0,0-2.138-.542H30.246v.542a3.618,3.618,0,0,0-2.235-.542H22.289L20.98,29.3l-1.227-1.417H11.206v9.26h8.387l1.349-1.439,1.271,1.439,5.17,0V34.974h.508a5.379,5.379,0,0,0,2.208-.326v2.5h4.264V34.734h.206c.263,0,.288.011.288.273v2.14H47.81a3.7,3.7,0,0,0,2.158-.593v.593h4.109A5.5,5.5,0,0,0,56.4,36.72V35Zm-6.325-2.652a1.848,1.848,0,0,1,.474,1.406c0,1.428-.893,2.094-2.491,2.094h-3.09V34.421h3.076a.932.932,0,0,0,.648-.164.589.589,0,0,0,.187-.432.569.569,0,0,0-.194-.439.835.835,0,0,0-.565-.147c-1.483-.051-3.34.046-3.34-2.054,0-.963.6-1.976,2.267-1.976h3.179V30.62H47.322a1.072,1.072,0,0,0-.635.12.556.556,0,0,0,.109.972,1.824,1.824,0,0,0,.617.075l.854.023a2.56,2.56,0,0,1,1.811.534h0Zm-14.308-.41a1.518,1.518,0,0,1-.783.136H33.06V30.58h1.952a1.557,1.557,0,0,1,.756.12.631.631,0,0,1,.329.6.716.716,0,0,1-.329.637h0Zm.957.826a1.72,1.72,0,0,1,.777.557,1.936,1.936,0,0,1,.263,1.211v1.315H36.174v-.83c0-.4.039-.99-.256-1.3a1.539,1.539,0,0,0-1.164-.295H33.06v2.424H31.467V29.208h3.661a3.925,3.925,0,0,1,1.908.313,1.554,1.554,0,0,1,.816,1.474,1.859,1.859,0,0,1-1.124,1.766Zm2-3.552h5.292V30.58H40.309v1.207h3.622v1.354H40.309v1.32l3.713.006v1.377H38.73V29.208Zm-10.7,3.063h-2.05V30.58H28.05c.572,0,.97.233.97.814s-.379.876-.988.876ZM24.4,35.24l-2.435-2.7L24.4,29.92Zm-6.287-.78h-3.9v-1.32H17.7V31.787H14.217V30.58h3.976l1.734,1.934-1.811,1.947Zm12.606-3.067c0,1.843-1.375,2.224-2.761,2.224H25.982v2.226H22.9l-1.953-2.2-2.029,2.2H12.637V29.208h6.378l1.951,2.175,2.017-2.175H28.05c1.258,0,2.672.348,2.672,2.186h0Z" transform="translate(0 -8.738)" fill="#fff" fill-rule="evenodd"/>
    </g>
  </g>
</svg>
