<svg xmlns="http://www.w3.org/2000/svg" xmlns:xlink="http://www.w3.org/1999/xlink" width="63" height="42" viewBox="0 0 63 42">
  <defs>
    <clipPath id="clip-discover">
      <rect width="63" height="42"/>
    </clipPath>
  </defs>
  <g id="discover" clip-path="url(#clip-discover)">
    <g id="Visa">
      <rect id="Rectangle_1" data-name="Rectangle 1" width="62.687" height="42" rx="4" fill="#fafafa"/>
    </g>
    <g id="discover-network" transform="translate(5.077 -6.487)">
      <circle id="Ellipse_1" data-name="Ellipse 1" cx="4.348" cy="4.348" r="4.348" transform="translate(24.163 22.184)" fill="#ef9122"/>
      <path id="Path_10" data-name="Path 10" d="M28.7,26.548A4.348,4.348,0,1,1,33.048,30.9" transform="translate(-4.537 -0.016)" fill="#f26e21"/>
      <path id="Path_11" data-name="Path 11" d="M30.3,23.454a4.316,4.316,0,0,1,6.1,6.1" transform="translate(-4.799 -0.016)" fill="#f44500"/>
      <path id="Path_12" data-name="Path 12" d="M3.341,22.484H1v8.195H3.341a4.536,4.536,0,0,0,2.927-.92,4.135,4.135,0,0,0,1.505-3.178c0-2.425-1.756-4.1-4.432-4.1Zm1.923,6.188a3.214,3.214,0,0,1-2.174.669h-.5V23.905h.418a2.838,2.838,0,0,1,2.174.669,2.671,2.671,0,0,1,.92,2.007A2.5,2.5,0,0,1,5.265,28.672Zm3.261-6.188h1.589v8.195H8.526Zm5.6,3.178c-1-.334-1.254-.585-1.254-1a1.058,1.058,0,0,1,1.171-.92,1.618,1.618,0,0,1,1.338.669l.836-1.087a3.643,3.643,0,0,0-2.425-.92A2.454,2.454,0,0,0,11.2,24.741c0,1.171.5,1.672,2.007,2.258a3.252,3.252,0,0,1,1.087.5.92.92,0,0,1,.5.836,1.166,1.166,0,0,1-1.254,1.171,1.95,1.95,0,0,1-1.756-1.087l-1,1a3.279,3.279,0,0,0,2.843,1.589,2.637,2.637,0,0,0,2.843-2.676C16.47,26.916,15.968,26.33,14.129,25.661Z" transform="translate(0 -0.049)" fill="#595a5b"/>
      <path id="Path_13" data-name="Path 13" d="M20.1,26.532A4.249,4.249,0,0,0,24.448,30.8a4.73,4.73,0,0,0,2.007-.5V28.372a2.6,2.6,0,0,1-1.923.92,2.7,2.7,0,0,1-2.76-2.843,2.734,2.734,0,0,1,2.676-2.843,2.636,2.636,0,0,1,2.007.92V22.6a4.2,4.2,0,0,0-2.007-.5A4.622,4.622,0,0,0,20.1,26.532Z" transform="translate(-3.128)" fill="#3b3d3f"/>
      <path id="Path_14" data-name="Path 14" d="M42.63,28.019,40.456,22.5H38.7l3.429,8.446h.92l3.6-8.446H44.888Zm4.683,2.676h4.6V29.357H48.986V27.1h2.843V25.678H48.986V23.922h2.927V22.5h-4.6Z" transform="translate(-6.174 -0.066)"/>
      <path id="Path_15" data-name="Path 15" d="M50.254,27.25a2.207,2.207,0,0,0,1.923-2.341c0-1.505-1.087-2.425-2.927-2.425H46.825v8.195h1.589V27.417h.251l2.258,3.261h1.923L50.254,27.25Zm-1.338-1h-.5V23.738h.5c1,0,1.589.418,1.589,1.254S49.919,26.247,48.916,26.247ZM3.341,22.484H1v8.195H3.341a4.536,4.536,0,0,0,2.927-.92,4.135,4.135,0,0,0,1.505-3.178c0-2.425-1.756-4.1-4.432-4.1Zm1.923,6.188a3.214,3.214,0,0,1-2.174.669h-.5V23.905h.418a2.838,2.838,0,0,1,2.174.669,2.671,2.671,0,0,1,.92,2.007A2.5,2.5,0,0,1,5.265,28.672Zm3.261-6.188h1.589v8.195H8.526Zm5.6,3.178c-1-.334-1.254-.585-1.254-1a1.058,1.058,0,0,1,1.171-.92,1.618,1.618,0,0,1,1.338.669l.836-1.087a3.643,3.643,0,0,0-2.425-.92A2.454,2.454,0,0,0,11.2,24.741c0,1.171.5,1.672,2.007,2.258a3.252,3.252,0,0,1,1.087.5.92.92,0,0,1,.5.836,1.166,1.166,0,0,1-1.254,1.171,1.95,1.95,0,0,1-1.756-1.087l-1,1a3.279,3.279,0,0,0,2.843,1.589,2.637,2.637,0,0,0,2.843-2.676C16.47,26.916,15.968,26.33,14.129,25.661ZM21.4,30.846a4.73,4.73,0,0,0,2.007-.5V28.421a2.6,2.6,0,0,1-1.923.92,2.7,2.7,0,0,1-2.76-2.843,3.127,3.127,0,0,1,.836-2.091L18.477,23.32A4.351,4.351,0,0,0,17.055,26.5,4.171,4.171,0,0,0,21.4,30.846Z" transform="translate(0 -0.049)" fill="#595a5b"/>
      <path id="Path_16" data-name="Path 16" d="M59.229,27.266a2.207,2.207,0,0,0,1.923-2.341c0-1.505-1.087-2.425-2.927-2.425H55.8v8.195h1.589V27.434h.251L59.9,30.695h1.923l-2.592-3.429Zm-1.338-1h-.5V23.754h.5c1,0,1.589.418,1.589,1.254S58.894,26.263,57.891,26.263Z" transform="translate(-8.975 -0.066)"/>
      <path id="Path_17" data-name="Path 17" d="M15.1,40.5V35.9l3.178,3.261v-3.01h.669v4.6l-3.178-3.261V40.5H15.1Zm7.192-3.679H20.535v1h1.672v.669H20.535v1.422h1.756V40.5H19.866V36.151h2.425Zm2.091,0V40.5h-.669V36.82h-1v-.585h2.676v.585Zm2.007-.585,1.087,2.927,1.171-3.094,1.087,3.094L30.9,36.234h.836l-1.923,4.6L28.73,37.74,27.56,40.834l-1.84-4.6Zm5.435,2.091a2.258,2.258,0,1,1,2.258,2.258A2.015,2.015,0,0,1,32.577,40,1.994,1.994,0,0,1,31.824,38.325Zm.669,0A1.518,1.518,0,0,0,33,39.5a1.472,1.472,0,0,0,1.087.5,1.651,1.651,0,0,0,1.171-.5,1.673,1.673,0,0,0-1.171-2.843,1.651,1.651,0,0,0-1.171.5A2,2,0,0,0,32.493,38.325Zm6.188.334,1.338,1.84h-.836l-1.254-1.756h-.084V40.5h-.669V36.151h.753a1.736,1.736,0,0,1,1.254.334,1.343,1.343,0,0,1,.418.92,1.022,1.022,0,0,1-.251.753.784.784,0,0,1-.669.5Zm-.836-.5h.167c.585,0,.92-.251.92-.669s-.334-.669-.92-.669h-.251v1.338Zm3.429-.251,1.672-1.756h.836l-1.923,1.923,1.923,2.341h-.836l-1.589-1.923-.167.167v1.756h-.669V36.067h.669v1.84Z" transform="translate(-2.309 -2.26)" fill="#f26e21"/>
      <path id="Path_18" data-name="Path 18" d="M50.491,29.357H48.986V27.852l-1.672-1.672v4.516h4.516ZM44.47,23.336l-1.84,4.683L40.456,22.5H38.7l3.429,8.446h.92l2.676-6.355Z" transform="translate(-6.174 -0.066)" fill="#3b3d3f"/>
    </g>
  </g>
</svg>
