<svg xmlns="http://www.w3.org/2000/svg" xmlns:xlink="http://www.w3.org/1999/xlink" width="63" height="42" viewBox="0 0 63 42">
  <defs>
    <clipPath id="clip-jcb">
      <rect width="63" height="42"/>
    </clipPath>
  </defs>
  <g id="jcb" clip-path="url(#clip-jcb)">
    <g id="Visa">
      <rect id="Rectangle_1" data-name="Rectangle 1" width="62.687" height="42" rx="4" fill="#fafafa"/>
    </g>
    <g id="jcb-2" data-name="jcb" transform="translate(8.6 -4.4)">
      <path id="Path_45" data-name="Path 45" d="M7.142,9.6A5.8,5.8,0,0,0,1,15.742V26.87a3.323,3.323,0,0,0,3.324,2.385,2.953,2.953,0,0,0,3.107-2.89V20.728h4.914v5.564c0,3.107-3.974,4.7-6.865,4.7a7.436,7.436,0,0,1-4.408-1.373V41.9h7.8A6.253,6.253,0,0,0,14.8,35.974V9.6Z" fill="#1174ce"/>
      <path id="Path_46" data-name="Path 46" d="M1,15.742V26.87a3.323,3.323,0,0,0,3.324,2.385,2.953,2.953,0,0,0,3.107-2.89V20.728h4.914v5.564c0,3.107-3.974,4.7-6.865,4.7a7.436,7.436,0,0,1-4.408-1.373V41.9h7.8A6.253,6.253,0,0,0,14.8,35.974V9.6" fill="#0f549d"/>
      <path id="Path_47" data-name="Path 47" d="M12.272,25v5.564c0,3.107-3.974,4.7-6.865,4.7A7.436,7.436,0,0,1,1,33.888V46.172H8.8a6.253,6.253,0,0,0,5.925-5.925" transform="translate(0 -4.272)" fill="#02375e"/>
      <path id="Path_48" data-name="Path 48" d="M47.3,35.324h3.4A1.662,1.662,0,0,0,50.7,32H47.3Z" transform="translate(-12.844 -6.214)" fill="#146643"/>
      <path id="Path_49" data-name="Path 49" d="M50.214,9.6c-3.541,0-6.142,2.24-6.142,6.07v5.058h9.1a2.385,2.385,0,0,1,0,4.769,2.449,2.449,0,0,1,2.6,2.312,2.406,2.406,0,0,1-2.6,2.312H44V41.9h7.8a6.253,6.253,0,0,0,5.925-5.925V9.6Z" transform="translate(-11.929)" fill="#1bcc38"/>
      <path id="Path_50" data-name="Path 50" d="M44,15.742v4.986h9.1a2.385,2.385,0,0,1,0,4.769,2.449,2.449,0,0,1,2.6,2.312,2.406,2.406,0,0,1-2.6,2.312H44V41.9h7.8a6.253,6.253,0,0,0,5.925-5.925V9.6" transform="translate(-11.929)" fill="#329947"/>
      <path id="Path_51" data-name="Path 51" d="M55.489,27.773A2.406,2.406,0,0,1,53.1,30.157a2.449,2.449,0,0,1,2.6,2.312,2.406,2.406,0,0,1-2.6,2.312H44V46.56h7.8a6.253,6.253,0,0,0,5.925-5.925M51.37,28.062A1.732,1.732,0,0,0,49.708,26.4H46.385v3.252h3.4A1.6,1.6,0,0,0,51.37,28.062Z" transform="translate(-11.929 -4.661)" fill="#146643"/>
      <path id="Path_52" data-name="Path 52" d="M28.542,9.6C25,9.6,22.4,11.84,22.4,15.67v6.214a4.927,4.927,0,0,1,3.107-1.228h8.238V22.39a25.7,25.7,0,0,0-4.769-.65,3.685,3.685,0,1,0,0,7.37,24.305,24.305,0,0,0,4.769-.578v1.59H25.507A4.43,4.43,0,0,1,22.4,28.893V41.9h7.8a6.253,6.253,0,0,0,5.925-5.925V9.6Z" transform="translate(-5.937)" fill="#e20e37"/>
      <path id="Path_53" data-name="Path 53" d="M22.4,15.742v6.214a4.927,4.927,0,0,1,3.107-1.228h8.238v1.734a25.7,25.7,0,0,0-4.769-.65,3.685,3.685,0,1,0,0,7.37,24.305,24.305,0,0,0,4.769-.578v1.517H25.507A4.43,4.43,0,0,1,22.4,28.893V41.9h7.8a6.253,6.253,0,0,0,5.925-5.925V9.6" transform="translate(-5.937)" fill="#b41f36"/>
      <path id="Path_54" data-name="Path 54" d="M33.745,25v1.734a25.7,25.7,0,0,0-4.769-.65,3.685,3.685,0,1,0,0,7.37,24.305,24.305,0,0,0,4.769-.578v1.517H25.507A4.43,4.43,0,0,1,22.4,33.165V46.172h7.8a6.253,6.253,0,0,0,5.925-5.925" transform="translate(-5.937 -4.272)" fill="#720a1e"/>
    </g>
  </g>
</svg>
