<svg width="63" height="42" viewBox="0 0 63 42" fill="none" xmlns="http://www.w3.org/2000/svg">
<rect width="62.6866" height="42" rx="4" fill="#FAFAFA"/>
<path d="M53.7411 12.7656H50.4571C49.4642 12.7656 48.7005 13.0711 48.2423 14.064L41.9797 28.3456H46.4093C46.4093 28.3456 47.1731 26.4363 47.3258 25.9781C47.784 25.9781 52.1373 25.9781 52.7483 25.9781C52.901 26.5127 53.2829 28.2692 53.2829 28.2692H57.2542L53.7411 12.7656ZM48.5478 22.7704C48.9296 21.854 50.228 18.4172 50.228 18.4172C50.228 18.4936 50.6098 17.5007 50.7626 16.9661L51.0681 18.3408C51.0681 18.3408 51.9082 22.0831 52.0609 22.8468H48.5478V22.7704Z" fill="#3362AB"/>
<path d="M42.2853 23.2293C42.2853 26.4369 39.3832 28.5753 34.8772 28.5753C32.9679 28.5753 31.1349 28.1935 30.1421 27.7352L30.7531 24.2221L31.2877 24.4512C32.6624 25.0622 33.5789 25.2913 35.259 25.2913C36.481 25.2913 37.7793 24.8331 37.7793 23.7639C37.7793 23.0765 37.2447 22.6183 35.5645 21.8546C33.9607 21.0908 31.8223 19.8689 31.8223 17.6541C31.8223 14.5992 34.8008 12.5371 39.0013 12.5371C40.6051 12.5371 41.9798 12.8426 42.8199 13.2245L42.209 16.5849L41.9035 16.2794C41.1397 15.9739 40.1469 15.6684 38.6958 15.6684C37.092 15.7448 36.3283 16.4321 36.3283 17.0431C36.3283 17.7304 37.2447 18.265 38.6958 18.9524C41.1397 20.098 42.2853 21.3963 42.2853 23.2293Z" fill="#3362AB"/>
<path d="M5.01489 12.9188L5.09127 12.6133H11.6593C12.5758 12.6133 13.2631 12.9188 13.4922 13.9116L14.9433 20.7851C13.4922 17.1193 10.1319 14.1407 5.01489 12.9188Z" fill="#F9B50B"/>
<path d="M24.1846 12.7658L17.5402 28.2694H13.0342L9.21558 15.2861C11.965 17.0427 14.2562 19.7921 15.0963 21.7014L15.5545 23.3052L19.6786 12.6895H24.1846V12.7658Z" fill="#3362AB"/>
<path d="M25.9411 12.6895H30.1416L27.4686 28.2694H23.2681L25.9411 12.6895Z" fill="#3362AB"/>
</svg>
