<svg xmlns="http://www.w3.org/2000/svg" xmlns:xlink="http://www.w3.org/1999/xlink" width="63" height="42" viewBox="0 0 63 42">
  <defs>
    <clipPath id="clip-diners">
      <rect width="63" height="42"/>
    </clipPath>
  </defs>
  <g id="diners" clip-path="url(#clip-diners)">
    <g id="Visa">
      <rect id="Rectangle_1" data-name="Rectangle 1" width="62.687" height="42" rx="4" fill="#fafafa"/>
    </g>
    <path id="diners-2" data-name="diners" d="M17.582,300.141v-14.2a7.527,7.527,0,0,0-3.525,2.777,7.588,7.588,0,0,0,3.525,11.424Zm10.328-7.09a7.394,7.394,0,0,0-1.352-4.334,7.527,7.527,0,0,0-3.525-2.777v14.221a7.527,7.527,0,0,0,3.525-2.777,7.394,7.394,0,0,0,1.352-4.334Zm4.406,0a11.775,11.775,0,0,1-1.609,6.025,11.894,11.894,0,0,1-4.375,4.375,12,12,0,0,1-10.686.656,11.824,11.824,0,0,1-6.393-6.393,12,12,0,0,1,.656-10.686,11.894,11.894,0,0,1,4.375-4.375,12.086,12.086,0,0,1,12.049,0,11.894,11.894,0,0,1,4.375,4.375,11.775,11.775,0,0,1,1.609,6.025Zm7.848.143a12.833,12.833,0,0,0-1.137-5.359A12.573,12.573,0,0,0,36,283.625a14.318,14.318,0,0,0-4.375-2.684,13.959,13.959,0,0,0-5.174-.984H20.287a13.545,13.545,0,0,0-6.629,1.66,12.464,12.464,0,0,0-4.816,4.713,13.3,13.3,0,0,0-1.793,6.865A12.517,12.517,0,0,0,8.832,299.7a13.282,13.282,0,0,0,11.455,6.486h6.168a13.4,13.4,0,0,0,5.154-1.035,14.73,14.73,0,0,0,4.4-2.766,13.188,13.188,0,0,0,3.023-4.15A11.71,11.71,0,0,0,40.163,293.195Zm7.049-13.238v26.229a2.66,2.66,0,0,1-2.623,2.623H2.623a2.521,2.521,0,0,1-1.844-.779A2.521,2.521,0,0,1,0,306.186V279.957a2.521,2.521,0,0,1,.779-1.844,2.521,2.521,0,0,1,1.844-.779H44.59a2.659,2.659,0,0,1,2.623,2.623Z" transform="translate(8 -272.334)"/>
  </g>
</svg>
