<svg xmlns="http://www.w3.org/2000/svg" xmlns:xlink="http://www.w3.org/1999/xlink" width="63" height="42" viewBox="0 0 63 42">
  <defs>
    <clipPath id="clip-maestro">
      <rect width="63" height="42"/>
    </clipPath>
  </defs>
  <g id="maestro" clip-path="url(#clip-maestro)">
    <g id="Visa">
      <rect id="Rectangle_1" data-name="Rectangle 1" width="62.687" height="42" rx="4" fill="#fafafa"/>
    </g>
    <g id="maestro-2" data-name="maestro" transform="translate(6.5 -7.1)">
      <path id="Path_19" data-name="Path 19" d="M25.225,38.924A14.835,14.835,0,0,0,15.335,13.1a14.8,14.8,0,1,0,0,29.591A14.365,14.365,0,0,0,25.225,38.924Z" transform="translate(0 0)" fill="#07a9e2" fill-rule="evenodd"/>
      <path id="Path_20" data-name="Path 20" d="M.5,27.935A14.806,14.806,0,0,0,15.335,42.691a14.289,14.289,0,0,0,9.89-3.846A14.8,14.8,0,0,0,15.335,13.1" transform="translate(0 0)" fill="#009ddd" fill-rule="evenodd"/>
      <path id="Path_21" data-name="Path 21" d="M27.01,16.946A14.806,14.806,0,0,0,17.12,13.1h-.706a18.238,18.238,0,0,0-.078,29.591h.706a14.289,14.289,0,0,0,9.89-3.846,14.832,14.832,0,0,0,.078-21.9Z" transform="translate(-1.785 0)" fill="#0284cc" fill-rule="evenodd"/>
      <path id="Path_22" data-name="Path 22" d="M40.721,13.1a14.628,14.628,0,0,0-9.968,3.846,14.1,14.1,0,0,0-1.491,1.57h2.983a11.217,11.217,0,0,1,1.1,1.57H28.084a15.566,15.566,0,0,0-.863,1.57h6.986a13.087,13.087,0,0,1,.628,1.57H26.671c-.157.549-.314,1.02-.471,1.57h9.1a13.75,13.75,0,0,1,.314,3.14,13.488,13.488,0,0,1-.785,4.709H26.671a13.087,13.087,0,0,0,.628,1.57h6.986a10.055,10.055,0,0,1-.863,1.57H28.162a11.216,11.216,0,0,0,1.1,1.57h2.983a14.105,14.105,0,0,1-1.491,1.57,15.008,15.008,0,0,0,9.968,3.846,14.835,14.835,0,0,0,0-29.67Z" transform="translate(-5.528 0)" fill="#ff2957" fill-rule="evenodd"/>
      <path id="Path_23" data-name="Path 23" d="M40.721,13.1a14.628,14.628,0,0,0-9.968,3.846,14.1,14.1,0,0,0-1.491,1.57h2.983a11.217,11.217,0,0,1,1.1,1.57H28.084a15.566,15.566,0,0,0-.863,1.57h6.986a13.087,13.087,0,0,1,.628,1.57H26.671c-.157.549-.314,1.02-.471,1.57h9.1a13.75,13.75,0,0,1,.314,3.14,13.488,13.488,0,0,1-.785,4.709H26.671a13.087,13.087,0,0,0,.628,1.57h6.986a10.055,10.055,0,0,1-.863,1.57H28.162a11.216,11.216,0,0,0,1.1,1.57h2.983a14.105,14.105,0,0,1-1.491,1.57,15.008,15.008,0,0,0,9.968,3.846A14.739,14.739,0,0,0,55.477,28.013" transform="translate(-5.528 0)" fill="#ed1c2e" fill-rule="evenodd"/>
      <path id="Path_24" data-name="Path 24" d="M32,39.977A14.84,14.84,0,0,0,32,18Z" transform="translate(-6.775 -1.054)" fill="#0466b5" fill-rule="evenodd"/>
      <path id="Path_25" data-name="Path 25" d="M57,35.971a.471.471,0,1,1,.471.471A.506.506,0,0,1,57,35.971Zm.471.392c.235,0,.314-.157.314-.392a.288.288,0,0,0-.314-.314.359.359,0,0,0-.392.314A.5.5,0,0,0,57.471,36.363Zm0-.235h-.078v-.392h.235l.078.078c0,.078,0,.078-.078.078l.078.157h-.078l-.078-.157h-.078v.235Zm0-.235h.078v-.078h-.078Z" transform="translate(-12.153 -4.818)" fill="#fff" fill-rule="evenodd"/>
      <path id="Path_26" data-name="Path 26" d="M30.752,16.986a14.1,14.1,0,0,0-1.491,1.57h2.983a11.217,11.217,0,0,1,1.1,1.57H28.084a15.566,15.566,0,0,0-.863,1.57h6.986a13.087,13.087,0,0,1,.628,1.57H26.671c-.157.549-.314,1.02-.471,1.57h9.1a13.75,13.75,0,0,1,.314,3.14,13.488,13.488,0,0,1-.785,4.709H26.671a13.087,13.087,0,0,0,.628,1.57h6.986a10.055,10.055,0,0,1-.863,1.57H28.162a11.216,11.216,0,0,0,1.1,1.57h2.983a14.105,14.105,0,0,1-1.491,1.57,15.008,15.008,0,0,0,9.968,3.846h.706a18.216,18.216,0,0,0,0-29.513h-.706A14.139,14.139,0,0,0,30.752,16.986Z" transform="translate(-5.528 -0.04)" fill="#d1094b" fill-rule="evenodd"/>
      <path id="Path_27" data-name="Path 27" d="M14.806,34.635H12.922l1.1-5.73-2.512,5.73H9.861l-.314-5.73-1.1,5.73H6.8L8.213,27.1h2.9l.157,4.709L13.315,27.1H16.3Z" transform="translate(-1.355 -3.011)" fill="#fff" fill-rule="evenodd"/>
      <path id="Path_28" data-name="Path 28" d="M14.678,31.36l1.1-2.433-.863,4.552a7.349,7.349,0,0,0,.314,1.256h1.256L17.9,27.2H15.149a15.164,15.164,0,0,0-.549,3.846C14.678,31.125,14.678,31.2,14.678,31.36Zm22.37,3.218a4.354,4.354,0,0,1-1.334.235c-.942,0-1.413-.471-1.413-1.334a1.532,1.532,0,0,1,.078-.549l.078-.628.078-.471L35.4,27.2h1.805l-.235,1.413h.942l-.235,1.413h-.942l-.471,2.512a.791.791,0,0,1-.078.235c0,.314.235.471.628.471.235,0,.392,0,.471-.078l-.235,1.413Zm5.416-5.965c-.157-.078-.157-.078-.235-.078s-.157,0-.157-.078h-.235c-.628,0-1.02.235-1.57,1.02l.157-.942H38.775l-1.1,6.122H39.56c.628-3.768.942-4.4,1.805-4.4H41.6l.235.078ZM29.749,30.5q0,1.177,1.413,1.648c.785.314.863.392.863.706,0,.392-.314.549-1.1.549a5.975,5.975,0,0,1-1.648-.235l-.235,1.413h.078l.314.078h.471a5.631,5.631,0,0,0,1.02.078c1.962,0,2.9-.628,2.9-2.041,0-.863-.392-1.334-1.334-1.727-.785-.314-.863-.392-.863-.628q0-.471.942-.471a8.557,8.557,0,0,1,1.334.078l.235-1.413a11.592,11.592,0,0,0-1.648-.078C30.455,28.456,29.749,29.4,29.749,30.5Zm-7.3,4.16H20.958v-.628A2.612,2.612,0,0,1,19,34.735a1.565,1.565,0,0,1-1.648-1.648c0-1.491,1.177-2.355,3.218-2.355h.785a1.05,1.05,0,0,0,.078-.392c0-.392-.314-.549-1.177-.549a7.907,7.907,0,0,0-1.491.157l-.235.078h-.157l.235-1.334a8.194,8.194,0,0,1,2.2-.314c1.57,0,2.433.628,2.433,1.805a4.716,4.716,0,0,1-.157,1.256l-.392,2.2-.078.392-.078.314v.235l-.078.078Zm-1.334-2.747h-.392c-1.02,0-1.57.314-1.57.942a.578.578,0,0,0,.628.628A1.393,1.393,0,0,0,21.115,31.909Zm7.378,2.59a7.741,7.741,0,0,1-1.884.235c-2.041,0-3.14-.942-3.14-2.747,0-2.119,1.334-3.611,3.218-3.611a2.171,2.171,0,0,1,2.433,2.2,5.8,5.8,0,0,1-.235,1.491H25.2V32.3c0,.706.549,1.1,1.57,1.1a3.877,3.877,0,0,0,1.884-.392Zm-.942-3.611v-.314a.765.765,0,0,0-.863-.785,1.243,1.243,0,0,0-1.177,1.1Z" transform="translate(-3.033 -3.033)" fill="#dce5e5" fill-rule="evenodd"/>
      <path id="Path_29" data-name="Path 29" d="M55.615,32.232A3.263,3.263,0,0,1,52,35.136a2.619,2.619,0,0,1-2.9-2.826A3.419,3.419,0,0,1,52.711,28.7a2.68,2.68,0,0,1,2.9,2.747v.785Zm-1.962-.785c0-.628-.235-1.177-1.02-1.177-.942,0-1.491,1.1-1.491,2.119,0,.785.392,1.334,1.02,1.334a1.82,1.82,0,0,0,1.413-1.491,2.945,2.945,0,0,0,.078-.785Z" transform="translate(-10.453 -3.355)" fill="#fff" fill-rule="evenodd"/>
      <path id="Path_30" data-name="Path 30" d="M49.184,33.684a12.835,12.835,0,0,0,.157-1.727V31.8a6.1,6.1,0,0,0-.157,1.256.86.86,0,0,0,0,.628Z" transform="translate(-10.459 -4.022)" fill="#fff" fill-rule="evenodd"/>
    </g>
  </g>
</svg>
