<svg xmlns="http://www.w3.org/2000/svg" xmlns:xlink="http://www.w3.org/1999/xlink" width="63" height="42" viewBox="0 0 63 42">
  <defs>
    <clipPath id="clip-master-card">
      <rect width="63" height="42"/>
    </clipPath>
  </defs>
  <g id="master-card" clip-path="url(#clip-master-card)">
    <g id="Visa">
      <rect id="Rectangle_1" data-name="Rectangle 1" width="62.687" height="42" rx="4" fill="#fafafa"/>
    </g>
    <g id="master-card-2" data-name="master-card" transform="translate(-36.759 -868.826)">
      <path id="Path_1" data-name="Path 1" d="M552.224,1269.468l.309-1.22c1.188-.358,3.611-.521,4.067.765.26.748-.488,3.855-.634,4.766l-1.155.016c-.26-.325-.049.277-.228-.521-1.106.992-3.465.83-3.286-1.171.179-1.985,1.9-1.724,3.774-2.017-.033-1.269-1.627-.927-2.863-.635Zm8.7-.2c-1.057,0-1.22-.228-2.147.179.114,1.155.716.7,1.545,1.253,1.578,1.041-.114,4.262-3.872,2.879l.211-1.171c1.057.211,1.594.423,2.408-.032.2-1.643-2.717-.569-1.9-3.2.439-1.432,2.375-1.236,3.969-1.09l-.228,1.188Zm-16.2-2.489,2.489.081.26,3.9,1.35-3.123c.456-1.122.146-.878,3.01-.846l-1.285,6.979-1.4-.016.765-5.01-2.066,5.043-1.676-.049a36.362,36.362,0,0,0-.39-5.059l-.846,5.075-1.464-.016Zm23.734,14.82.683-.813c-1.367-.179-1.611.211-2.229-.895l3.14-.032a9.135,9.135,0,0,0,.683-1.009c-3.579-.244-4.587.667-5.157-.895h5.742l.635-.992-7.093-.032-.325-.83,7.646-.032c.439-.244.439-.521.553-1.025l-7.239-.016c-1.3.016-1.383.309-1.627-.879h9.11l.293-1.009-2.668-.032-.13.683-1.529-.065.96-5.677,1.448.2c0,.032.033.146.033.2,0,.033.016.081.016.1l.081.293a1.655,1.655,0,0,1,1.611-.813l-.488,1.318c-.276.358-1.09-.049-1.432.927l1.594.065a10.281,10.281,0,0,1,.667-2.164l.016-.488-9.972.016-.033.358c.537,0,.521-.1.83.163l-.146.96c-1.009.244-.976-.358-1.074.96.146.244-.033.114.277.2l.634.016c1.025-3.335,4.083-2.6,4.783-1.562.374.553.748,2.375-.179,2.521l-3.107.033c.146,1.643,2.034,1.3,3.254.895-.049.683,0,1.236-.634,1.464a4.881,4.881,0,0,1-2.115,0,2.317,2.317,0,0,1-2.05-2.473l-.586-.016c-.537-.244-.114,0-.39-.667-.228,1.366-.846,2.245.846,2.05-.1.813.016,1.09-.878,1.188-2.6.309-1.757-1.432-1.334-3.758.667-3.709.146-3.253,2.033-3.221l9.7.016-.2-1.009-9.37-.032.179-.813,8.866-.049c-.228-1.383-.277-1.041-3.5-1.041h-4.913c.342-1.187.163-.862,3.351-.862h4.311l-.455-1.025-6.247-.016.423-.846,5.222-.033c-.667-1.366-.634-.976-4.327-1.041.472-1.171,1.3-.878,2.749-.878-.407-.651-.7-.6-.943-1.155a17.059,17.059,0,0,1-1.741-1.285,15.815,15.815,0,1,0-6.019,28.6c4.653-.8,5.824-2.684,7.743-3.742Z" transform="translate(-500.16 -380.056)" fill="#e41d2c" fill-rule="evenodd"/>
      <path id="Path_2" data-name="Path 2" d="M1880.584,1272.513c5.043-1.025,4.213,1.464,3.806,3.481-.13.6-.13,1.789-.6,2.115a7.138,7.138,0,0,1-.846-.016c-.456-.179-.244.358-.309-.472-1.366.781-3.53.96-3.27-1.22.211-1.741,1.969-2.017,3.758-1.936-.065-1.285-1.236-1.074-2.863-.667l.342-1.285Zm4.978-.146,1.35.016a.3.3,0,0,1,.032.114l.211.6a1.654,1.654,0,0,1,1.415-.716l-.2,1.155-.667.26c-1.334.439-1.253,2.115-1.611,4.311h-1.513Zm7.174-1.236h1.383l-1.188,7c-1.545.016-1.171.1-1.659-.488-1.009,1.5-4.034.114-3.107-2.977.683-2.31,2.993-2.928,4.132-1.562l.455-1.985Zm-22.759-8.784c.244.553.553.5.944,1.155-1.448,0-2.278-.309-2.749.879,3.693.065,3.66-.325,4.327,1.041l-5.222.033-.423.846,6.247.016.455,1.025h-4.311c-3.172,0-3.01-.309-3.351.862h4.913c3.221,0,3.27-.342,3.5,1.041l-8.866.049-.179.813,9.37.033.2,1.008-9.7-.016-.13.911,9.972-.016-.016.488c.748-.716.618-1.09,2.017-1.5a5.482,5.482,0,0,1,3.026.163l-.244,1.5c-1.952-.586-3.221-.439-3.677,1.578-.5,2.164,1.2,2.977,3.01,2.115-.163,1.578-.423,1.969-2.277,1.724a2.9,2.9,0,0,1-2.245-1.545h-2.326l-.13.895,2.668.032-.293,1.009h-9.11c.244,1.188.325.895,1.627.878l7.239.016c-.13.488-.114.781-.553,1.025l-7.646.032.325.83,7.093.032-.635.992h-5.742c.569,1.545,1.578.651,5.157.895a9.1,9.1,0,0,1-.683,1.009l-3.14.032c.6,1.09.862.716,2.229.895l-.683.813c2.326,1.708,4.132,3.14,7.89,3.79a16.377,16.377,0,0,0,9.728-1.415,15.81,15.81,0,0,0-.1-28.387,16.3,16.3,0,0,0-14.1.1,21.8,21.8,0,0,0-3.384,2.343Z" transform="translate(-1801.662 -384.37)" fill="#f8b02b" fill-rule="evenodd"/>
      <path id="Path_3" data-name="Path 3" d="M634,2035.225l1.464.016.846-5.075a36.356,36.356,0,0,1,.39,5.059l1.676.049,2.066-5.043-.765,5.01,1.4.016,1.285-6.979c-2.863-.033-2.554-.277-3.009.846l-1.35,3.123-.26-3.9-2.489-.081Zm45.322-1.285c-1.22-1.253-.179-3.335.96-3.058C681.4,2031.158,681.192,2033.908,679.322,2033.94Zm1.985-3.693c-1.139-1.366-3.432-.748-4.132,1.562-.927,3.074,2.1,4.474,3.107,2.977.488.585.114.488,1.659.488l1.188-7h-1.383l-.456,1.985Zm-11.176,3.709c-.228-1.09.781-1.513,1.741-1.318A1.211,1.211,0,0,1,670.13,2033.957Zm-.521-4.279-.342,1.285c1.627-.39,2.814-.6,2.863.667-1.789-.081-3.546.2-3.758,1.936-.277,2.18,1.9,2,3.27,1.22.065.83-.146.293.309.472a7.136,7.136,0,0,0,.846.016c.488-.309.488-1.513.6-2.115.423-2.034,1.236-4.506-3.807-3.481Zm-24.271,2.912a1.35,1.35,0,0,1-.423,1.253c-.244.179-.976.39-1.269.114-.911-.83.8-1.383,1.676-1.367Zm-2.587-1.659c1.236-.293,2.831-.635,2.863.635-1.871.293-3.6.032-3.774,2.017-.2,2,2.164,2.164,3.286,1.171.179.8-.033.2.228.521l1.155-.016c.146-.927.895-4.018.635-4.766-.456-1.3-2.863-1.139-4.067-.765l-.309,1.22Zm13.486.813c.211-.83.569-1.171,1.529-1.041.342.488.342.342.407,1.041Zm-1.724.081-.065.878a2.339,2.339,0,0,0,2.05,2.473,4.88,4.88,0,0,0,2.115,0c.634-.212.586-.781.634-1.464-1.22.407-3.107.748-3.254-.895l3.107-.032c.927-.146.553-1.952.179-2.521-.7-1.041-3.758-1.773-4.783,1.562Zm9.468-2.164a10.282,10.282,0,0,0-.667,2.164v.895l.277.992a2.9,2.9,0,0,0,2.245,1.545c1.854.244,2.115-.146,2.277-1.724-1.822.862-3.514.049-3.01-2.115.472-2.033,1.741-2.164,3.676-1.578l.244-1.5a5.8,5.8,0,0,0-3.026-.163c-1.4.39-1.269.781-2.017,1.5Zm-12.315-.114c-1.594-.13-3.53-.342-3.969,1.09-.813,2.635,2.082,1.562,1.9,3.2-.83.456-1.35.244-2.408.032l-.211,1.171c3.758,1.383,5.433-1.822,3.872-2.879-.83-.553-1.432-.081-1.545-1.253.927-.423,1.074-.179,2.147-.179l.228-1.187Z" transform="translate(-590.688 -1141.519)" fill="#fefefe" fill-rule="evenodd"/>
      <path id="Path_4" data-name="Path 4" d="M1720.621,2044.682l.114-.39c.1-1.318.065-.716,1.074-.96l.146-.96c-.309-.26-.293-.163-.83-.163l.032-.358.13-.911c-1.887-.032-1.366-.488-2.033,3.221-.423,2.326-1.269,4.067,1.334,3.758.878-.1.781-.374.878-1.188C1719.792,2046.927,1720.41,2046.049,1720.621,2044.682Zm7.646,2.586.13-.895.163-.976.293-.976c.358-.976,1.171-.569,1.431-.927l.488-1.318a1.624,1.624,0,0,0-1.611.813l-.081-.293c0-.016-.016-.065-.016-.1s-.033-.163-.033-.2l-1.448-.2-.96,5.677,1.529.065.13-.683Zm12.477.651h1.513c.358-2.2.277-3.872,1.611-4.311l.667-.26.2-1.155a1.654,1.654,0,0,0-1.415.716l-.212-.6c-.016-.032-.016-.081-.032-.114l-1.35-.016Z" transform="translate(-1657.82 -1154.181)" fill="#fefefe" fill-rule="evenodd"/>
      <path id="Path_5" data-name="Path 5" d="M3386.685,2204.547c1.887-.033,2.1-2.782.96-3.059C3386.49,2201.212,3385.465,2203.294,3386.685,2204.547Z" transform="translate(-3298.052 -1312.125)" fill="#f8b02b" fill-rule="evenodd"/>
      <path id="Path_6" data-name="Path 6" d="M1213.959,2307.979c-.878-.016-2.587.537-1.676,1.366.293.26,1.025.049,1.269-.114a1.375,1.375,0,0,0,.423-1.253Zm15.926,1.106,2.326.016-.276-.992h-1.887Z" transform="translate(-1159.309 -1416.908)" fill="#e41d2c" fill-rule="evenodd"/>
      <path id="Path_7" data-name="Path 7" d="M2328.7,2258.212a1.212,1.212,0,0,0,1.741-1.318C2329.468,2256.716,2328.476,2257.139,2328.7,2258.212Zm-8.7-1.236h1.887v-.895l-1.594-.082Z" transform="translate(-2249.261 -1365.775)" fill="#f8b02b" fill-rule="evenodd"/>
      <path id="Path_8" data-name="Path 8" d="M2001,2191.416h1.936c-.049-.683-.065-.553-.407-1.041C2001.57,2190.244,2001.211,2190.586,2001,2191.416Z" transform="translate(-1935.45 -1301.191)" fill="#e41d2c" fill-rule="evenodd"/>
      <path id="Path_9" data-name="Path 9" d="M1832,2248.407c.276.667-.146.423.39.667l.586.016.065-.878-.634-.016c-.325-.065-.146.049-.276-.2l-.114.391Z" transform="translate(-1769.199 -1357.905)" fill="#f8b02b" fill-rule="evenodd"/>
    </g>
  </g>
</svg>
