<svg xmlns="http://www.w3.org/2000/svg" xmlns:xlink="http://www.w3.org/1999/xlink" width="63" height="42" viewBox="0 0 63 42">
  <defs>
    <clipPath id="clip-unionpay">
      <rect width="63" height="42"/>
    </clipPath>
  </defs>
  <g id="unionpay" clip-path="url(#clip-unionpay)">
    <g id="Visa">
      <rect id="Rectangle_1" data-name="Rectangle 1" width="62.687" height="42" rx="4" fill="#fafafa"/>
    </g>
    <g id="unionpay-2" data-name="unionpay" transform="translate(9 -6.8)">
      <path id="Path_31" data-name="Path 31" d="M24.725,34.757h.2a.411.411,0,0,0,.408-.2l.612-.885h1.565l-.34.544H29.08l-.272.885H26.562a1.027,1.027,0,0,1-.953.544H24.453l.272-.885m-.272,1.225h4.083l-.272.953H26.63l-.272.953h1.633l-.272.953H26.086L25.678,40.2c-.068.2,0,.34.34.272h1.293l-.272.885H24.521c-.476,0-.612-.272-.476-.817l.476-1.769H23.5l.272-.953h1.021l.272-.953h-.953l.34-.885Zm6.6-2.314-.068.544a2.825,2.825,0,0,1,1.5-.612h2.586l-1.021,3.675c-.068.408-.408.612-1.089.612H30.033l-.681,2.518c-.068.136,0,.2.136.2H30.1l-.2.749H28.4c-.544,0-.817-.136-.681-.544L29.693,33.6h1.361Zm2.178,1.021H30.917l-.272.953a1.983,1.983,0,0,1,1.021-.272h1.361l.2-.681Zm-.817,2.246c.2,0,.272-.068.272-.2l.136-.544H30.509l-.2.749Zm-1.565,1.157H32.21V38.7h.34c.2,0,.272-.068.272-.2l.136-.408h1.089l-.136.544a1.041,1.041,0,0,1-1.021.749h-.749v1.021c0,.136.136.272.408.272h.681l-.2.817H31.394c-.476,0-.681-.2-.681-.681Z" transform="translate(-7.189 -4.729)" fill="#009da5"/>
      <path id="Path_32" data-name="Path 32" d="M26.833,35.469l.272-.272h2.246l.272-.885H27.718l.34-.544H26.493l-.612.817a.411.411,0,0,1-.408.2h-.2l-.068.2C25.744,35.129,26.289,35.333,26.833,35.469Zm4.7-1.225L31.6,33.7H30.236l-.612,2.178c.34,0,.749.068,1.089.068a15.786,15.786,0,0,0,4.423-.612l.476-1.633H33.026a3,3,0,0,0-1.5.544ZM33.57,35.4H32.209a1.71,1.71,0,0,0-1.021.272l.272-.953h2.314l-.2.681Z" transform="translate(-7.732 -4.76)" fill="#02cccc"/>
      <path id="Path_33" data-name="Path 33" d="M41.769,34.757l.34-1.089h1.565l-.068.408a4.01,4.01,0,0,1,1.361-.408h1.973l-.34,1.089h-.272l-1.5,5.172H45.1l-.272,1.021h-.34l-.136.476h-1.5l.136-.476H40l.272-1.021h.272l1.5-5.172h-.272m1.7,0-.408,1.429a5.864,5.864,0,0,1,1.293-.34c.136-.476.272-1.089.272-1.089H43.471Zm-.544,2.11-.408,1.5a5.658,5.658,0,0,1,1.293-.408l.272-1.089H42.926Zm.272,3.062.272-1.089H42.314l-.272,1.089ZM47.009,33.6h1.5l.068.544c0,.136.068.2.272.2h.272l-.272.953H47.758c-.408,0-.612-.136-.681-.476L47.009,33.6ZM46.6,35.642h4.764l-.272.953H49.6l-.272.953h1.5l-.272,1.021h-1.7l-.408.612h.817l.2,1.157c0,.136.136.2.272.2H50l-.272.953h-.885c-.476,0-.749-.136-.749-.476l-.2-1.089-.749,1.157a.889.889,0,0,1-.817.476H44.9l.272-.953h.408a.514.514,0,0,0,.476-.272l1.157-1.7h-1.5l.272-1.021h1.633l.272-.953H46.261l.34-1.021Z" transform="translate(-12.46 -4.729)" fill="#009da5"/>
      <path id="Path_34" data-name="Path 34" d="M44.537,33.8H42.972l-.272.885C43.312,34.412,43.925,34.14,44.537,33.8Z" transform="translate(-13.323 -4.792)" fill="#02cccc"/>
      <path id="Path_35" data-name="Path 35" d="M7.329,24.108A3.472,3.472,0,0,1,6.1,26.149a4.247,4.247,0,0,1-2.518.749,2.731,2.731,0,0,1-2.11-.749A1.854,1.854,0,0,1,1,24.788a3.052,3.052,0,0,1,.068-.749L2.157,18.8H3.79L2.7,23.972c0,.136-.068.272-.068.408a1.15,1.15,0,0,0,.2.681,1.142,1.142,0,0,0,.953.408,2.176,2.176,0,0,0,1.225-.34,1.6,1.6,0,0,0,.612-1.089l1.089-5.172H8.486l-1.157,5.24" fill="#ff7f29"/>
      <path id="Path_36" data-name="Path 36" d="M7.329,24.108A3.472,3.472,0,0,1,6.1,26.149a4.247,4.247,0,0,1-2.518.749,2.731,2.731,0,0,1-2.11-.749A1.854,1.854,0,0,1,1,24.788a3.052,3.052,0,0,1,.068-.749L3.45,18.8h.34L2.7,23.972c0,.136-.068.272-.068.408a1.15,1.15,0,0,0,.2.681,1.142,1.142,0,0,0,.953.408,2.176,2.176,0,0,0,1.225-.34,1.6,1.6,0,0,0,.612-1.089l2.382-5.172h.476l-1.157,5.24m1.565-2.042h1.157l-.136.681.136-.2a1.814,1.814,0,0,1,1.361-.612,1.437,1.437,0,0,1,1.089.408,1.559,1.559,0,0,1,.2,1.157l-.612,3.2H10.867l.544-2.926a.75.75,0,0,0-.068-.681c-.068-.136-.272-.2-.544-.2a.929.929,0,0,0-.749.272,1.552,1.552,0,0,0-.408.817L9.1,26.694H7.873l1.021-4.627" fill="#ea2227"/>
      <path id="Path_37" data-name="Path 37" d="M31.753,23.536H32.91l-.136.681.136-.2a1.814,1.814,0,0,1,1.361-.612,1.437,1.437,0,0,1,1.089.408,1.559,1.559,0,0,1,.2,1.157l-.612,3.2H33.726l.612-2.926a.75.75,0,0,0-.068-.681c-.068-.136-.272-.2-.544-.2a.929.929,0,0,0-.749.272,1.552,1.552,0,0,0-.408.817l-.544,2.722H30.8l.953-4.627" transform="translate(-9.521 -1.47)" fill="#a5002f"/>
      <path id="Path_38" data-name="Path 38" d="M20.021,22.8h1.293l-1.021,4.7H19l1.021-4.7m.408-1.7h1.293l-.272,1.157H20.157Zm2.042,6.056a1.694,1.694,0,0,1-.476-1.293v-.34a.613.613,0,0,1,.068-.34,3.418,3.418,0,0,1,.953-1.837,2.463,2.463,0,0,1,1.837-.681A1.662,1.662,0,0,1,26.69,24.5v.34a.613.613,0,0,1-.068.34,3,3,0,0,1-.953,1.769,2.765,2.765,0,0,1-1.837.681,2.192,2.192,0,0,1-1.361-.476m2.45-.953a2.3,2.3,0,0,0,.476-1.089.514.514,0,0,1,.068-.272v-.2a1.016,1.016,0,0,0-.2-.681.863.863,0,0,0-.612-.272,1.1,1.1,0,0,0-.885.408,2.285,2.285,0,0,0-.476,1.157.25.25,0,0,1-.068.2v.2a1.016,1.016,0,0,0,.2.681.832.832,0,0,0,.612.2.972.972,0,0,0,.885-.34" transform="translate(-5.751 -0.735)" fill="#ea2227"/>
      <path id="Path_39" data-name="Path 39" d="M40,19.3h3.4a2.312,2.312,0,0,1,1.5.408A1.543,1.543,0,0,1,45.441,21v.34c0,.136-.068.272-.068.408a2.932,2.932,0,0,1-1.021,1.769,3.1,3.1,0,0,1-1.905.681H40.61l-.544,2.722H38.5L40,19.3m.817,3.539h1.5a1.44,1.44,0,0,0,.953-.272,2.353,2.353,0,0,0,.476-.817v-.34a.663.663,0,0,0-.272-.612,1.544,1.544,0,0,0-.885-.2H41.29Z" transform="translate(-11.981 -0.16)" fill="#1398e2"/>
      <path id="Path_40" data-name="Path 40" d="M41.258,19.3H43.3a2.312,2.312,0,0,1,1.5.408A1.543,1.543,0,0,1,45.341,21v.34c0,.136-.068.272-.068.408a2.932,2.932,0,0,1-1.021,1.769,3.1,3.1,0,0,1-1.905.681H40.51l-.544,2.722H38.4L41.258,19.3m-.476,3.539h1.5a1.44,1.44,0,0,0,.953-.272,2.353,2.353,0,0,0,.476-.817v-.34a.663.663,0,0,0-.272-.612,1.544,1.544,0,0,0-.885-.2H41.258Z" transform="translate(-11.949 -0.16)" fill="#0872b9"/>
      <path id="Path_41" data-name="Path 41" d="M57.3,29.18a6.579,6.579,0,0,1-1.225,1.973,2.5,2.5,0,0,1-2.178.885l.136-.817c1.089-.34,1.7-1.905,2.042-2.586L55.669,23.6H57.3l.068,3.2,1.361-3.2h1.361L57.3,29.18" transform="translate(-16.901 -1.534)" fill="#055093"/>
      <path id="Path_42" data-name="Path 42" d="M51.443,24.047l-.544.408a1.67,1.67,0,0,0-2.11-.272c-1.361.612-2.518,5.512,1.225,3.879l.2.272,1.5.068.953-4.423-1.225.068m-.885,2.45c-.272.681-.749,1.157-1.157,1.021s-.544-.817-.34-1.5c.272-.681.749-1.157,1.157-1.021.476.136.612.817.34,1.5" transform="translate(-14.853 -1.64)" fill="#0872b9"/>
      <path id="Path_43" data-name="Path 43" d="M49.7,28.455c.272-.068.612-.136,1.021-.272l.2.272,1.5.068.953-4.423h-.34A11.012,11.012,0,0,1,49.7,28.455Z" transform="translate(-15.559 -1.693)" fill="#055093"/>
      <path id="Path_44" data-name="Path 44" d="M27.651,23.876A1.854,1.854,0,0,0,26.29,23.4h-.34a9.641,9.641,0,0,1-.544,1.225,1.15,1.15,0,0,1,.681-.2.663.663,0,0,1,.612.272,1.016,1.016,0,0,1,.2.681v.2a.514.514,0,0,1-.068.272,2.028,2.028,0,0,1-.476,1.089,1.045,1.045,0,0,1-.885.34.832.832,0,0,1-.612-.2,1.016,1.016,0,0,1-.2-.681v-.2a.25.25,0,0,1,.068-.2c0-.136.068-.2.068-.272A9.292,9.292,0,0,1,23.5,27.279a1.412,1.412,0,0,0,.408.681,1.854,1.854,0,0,0,1.361.476,2.683,2.683,0,0,0,1.837-.681,3,3,0,0,0,.953-1.769c0-.136.068-.2.068-.34v-.34a1.82,1.82,0,0,0-.476-1.429Z" transform="translate(-7.189 -1.47)" fill="#a5002f"/>
    </g>
  </g>
</svg>
